<svg width="45" height="45" viewBox="0 0 45 45" fill="none" xmlns="http://www.w3.org/2000/svg">
<path d="M42.5782 10.3447C42.8672 9.24609 42.5781 8.4375 41.1875 8.4375H36.586C35.4141 8.4375 34.875 9.13184 34.586 9.90527C34.586 9.90527 32.2422 16.3301 28.9297 20.4961C27.8594 21.7002 27.3672 22.0869 26.7813 22.0869C26.4922 22.0869 26.0469 21.7002 26.0469 20.6016V10.3447C26.0469 9.02637 25.7188 8.4375 24.75 8.4375H17.5156C16.7813 8.4375 16.3438 9.05273 16.3438 9.62402C16.3438 10.8721 18 11.1621 18.1719 14.6777V22.3066C18.1719 23.9766 17.9063 24.2842 17.3203 24.2842C15.7578 24.2842 11.9609 17.833 9.71094 10.4502C9.25782 9.01758 8.8125 8.4375 7.63282 8.4375H3.03125C1.71875 8.4375 1.45312 9.13184 1.45312 9.90527C1.45312 11.2764 3.01563 18.0879 8.72657 27.0879C12.5313 33.2314 17.8906 36.5625 22.7656 36.5625C25.6953 36.5625 26.0547 35.8242 26.0547 34.5498C26.0547 28.6787 25.7891 28.125 27.2578 28.125C27.9375 28.125 29.1094 28.5117 31.8438 31.4736C34.9688 34.9893 35.4844 36.5625 37.2344 36.5625H41.836C43.1485 36.5625 43.8125 35.8242 43.4297 34.3652C42.5547 31.2979 36.6406 24.9873 36.375 24.5654C35.6953 23.5811 35.8906 23.1416 36.375 22.2627C36.3828 22.2539 42 13.3594 42.5782 10.3447Z" fill="white"/>
</svg>
